<svg width="110" height="109" viewBox="0 0 110 109" fill="none" xmlns="http://www.w3.org/2000/svg">
  <path
    d="M55.2 55.5h3.6v3.6h-3.6v-3.6ZM19.2 46.8a20 20 0 0 1-1.7-2.9l-3.3 1.7a22.6 22.6 0 0 0 2 3.4l3-2.2ZM41.6 92h3.7v3.7h-3.7V92ZM41 21.8h-3.7v3.6H41v-3.6ZM44.7 21.8h3.6v3.6h-3.6v-3.6ZM49 92h3.6v3.7H49V92ZM18.8 52l3 2.4 2-3-2.5-2.1-2.5 2.6ZM27.7 28 26 24.8a24 24 0 0 0-3.3 2.2l2.3 2.8c.9-.7 1.8-1.3 2.8-1.8ZM40.2 59.4c1.3 0 2.7 0 4-.3l-.5-3.6c-1.1.2-2.2.3-3.4.2v3.7ZM34 25.7l-.7-3.5c-1.3.2-2.5.5-3.8 1l1.3 3.4c1-.4 2.1-.7 3.2-.9ZM32.4 58.4c1.2.5 2.5.9 3.8 1.1L37 56a20 20 0 0 1-3.2-1l-1.4 3.4ZM56.3 92H60v3.7h-3.7V92ZM29.9 54.2c-1-.3-2.1-.7-3.1-1.2l-1.6 3.3c1.2.6 2.4 1 3.7 1.4l1-3.5ZM22.5 32.1l-2.7-2.4c-1 1-1.7 2-2.4 3.2l3 1.9a20 20 0 0 1 2.1-2.7ZM19 37.7l-3.4-1.4c-.6 1.3-1 2.5-1.3 3.8l3.6.8 1-3.2ZM47.8 55.5h3.7v3.6h-3.7v-3.6ZM91.8 69c-.4-1.2-1-2.5-1.7-3.6L87 67.2c.5 1 1 2 1.3 3l3.5-1.2ZM52 21.8h3.7v3.6H52v-3.6ZM83.4 88.2l2.4 2.8c1-.9 2-1.9 2.8-2.9L85.7 86c-.7.8-1.4 1.6-2.3 2.3ZM89.2 73.6a16.7 16.7 0 0 1 0 3.3l3.7.2a20.4 20.4 0 0 0 0-4l-3.7.5ZM81.4 57.4c-1.2-.5-2.5-1-3.8-1.3l-.9 3.5c1 .3 2.1.6 3 1.1l1.7-3.3ZM87.5 83.1l3.3 1.7c.6-1.2 1-2.5 1.4-3.8l-3.5-1c-.3 1.1-.7 2.1-1.2 3.1ZM84.8 59.5l-2.2 2.9c.9.6 1.7 1.4 2.4 2.2l2.8-2.4c-1-1-2-2-3-2.7ZM63.6 92h3.7v3.7h-3.7V92ZM73.4 59.1l.2-3.6h-3.8v3.6h3.6ZM62.5 55.5h3.7v3.6h-3.7v-3.6ZM77.7 91.3l1 3.5c1.4-.4 2.6-1 3.8-1.6L80.7 90c-1 .5-2 1-3 1.3ZM72.8 92H71v3.7h1.8l2-.1-.3-3.7-1.7.1ZM83.4 18.2c1 0 1.8.8 1.8 1.8H89c0-2.3-1.5-4.4-3.7-5.1v-2.2h-3.6V15a5.4 5.4 0 0 0 1.8 10.5c1 0 1.8.8 1.8 1.8s-.8 1.8-1.8 1.8-1.8-.8-1.8-1.8h-3.7c0 2.3 1.5 4.4 3.7 5.1v2.2h3.6v-2.2a5.4 5.4 0 0 0-1.8-10.5c-1 0-1.8-.8-1.8-1.8s.8-1.8 1.8-1.8Z"
    fill="#FFA726" />
  <path
    d="M83.4 5.4a18.2 18.2 0 0 0-18.3 18.2c0 10 8.2 18.1 18.3 18.1 10.1 0 18.3-8 18.3-18.1 0-10-8.2-18.1-18.3-18.2Zm0 32.7c-8 0-14.7-6.5-14.7-14.5S75.3 9.1 83.4 9.1s14.7 6.5 14.7 14.5-6.6 14.5-14.7 14.5Z"
    fill="#FFA726" />
  <path
    d="M83.4 0a23.7 23.7 0 0 0-23.8 23.6c0 13 10.7 23.6 23.8 23.6a23.7 23.7 0 0 0 23.8-23.6c0-13-10.6-23.6-23.8-23.6Zm0 43.6a20 20 0 0 1-20.2-20c0-11 9-20 20.2-20a20 20 0 0 1 20.2 20c0 11-9 20-20.2 20ZM23 62c-8.3 0-15 6.5-15 14.5 0 9.7 13 24.3 13.6 24.9a2 2 0 0 0 2.8 0C25 100.8 38 86.2 38 76.5c0-8-6.7-14.5-15-14.5Zm0 36.6c-4-4.8-12-16-12-22S16.9 65 23 65s12.3 5.5 12.3 11.5c0 6.1-8.2 17.3-12.3 22.1Z"
    fill="#FFA726" />
  <path
    d="M23.5 69a7.5 7.5 0 1 0 0 15 7.5 7.5 0 0 0 0-15Zm0 11.3a3.7 3.7 0 1 1 0-7.5 3.7 3.7 0 0 1 0 7.5Z"
    fill="#FFA726" />
</svg>