<svg width="275" height="76" viewBox="0 0 275 76" fill="none" xmlns="http://www.w3.org/2000/svg">
  <path stroke="#fff" d="M1 65.5h74M201 65.5h74" />
  <path
    d="m56.6 48-6.4-8.9-2 .1h-7.4V48h-3.5V19.7h11c3.6 0 6.5 1 8.6 2.7 2.1 1.7 3.1 4 3.1 7.1a9 9 0 0 1-1.6 5.5 9.3 9.3 0 0 1-4.8 3.4l6.9 9.6h-3.9ZM48 36.2c2.8 0 4.8-.5 6.3-1.7a6 6 0 0 0 2.2-5 6 6 0 0 0-2.2-5 9.7 9.7 0 0 0-6.3-1.8H41v13.6H48Zm38 4.5H70.3L66.9 48h-3.6l13-28.3H80l13 28.3h-3.5L86 40.7Zm-1.2-2.9-6.6-14.6-6.7 14.6h13.3Zm37.9-18V48h-3l-17.8-22v22h-3.6V19.7h3l17.8 22.1v-22h3.6ZM141 48.3c-2.2 0-4.3-.3-6.3-1-2-.6-3.5-1.5-4.6-2.5l1.5-2.8c1 1 2.4 1.7 4.1 2.4 1.8.6 3.6.9 5.4.9 2.5 0 4.3-.5 5.4-1.3a4 4 0 0 0 1.8-3.4c0-1-.3-2-1-2.6a6.3 6.3 0 0 0-2.5-1.5l-4-1c-2.1-.5-3.9-1-5.2-1.5a8.6 8.6 0 0 1-3.3-2.4c-.9-1-1.4-2.4-1.4-4.2a7 7 0 0 1 2.9-5.8c1.9-1.5 4.5-2.2 8-2.2 1.6 0 3.3.2 4.9.7 1.6.4 3 1 4.1 1.8l-1.3 2.9a13.3 13.3 0 0 0-7.9-2.3c-2.3 0-4.1.4-5.3 1.4a4 4 0 0 0-1.8 3.4c0 1 .3 1.9 1 2.6.7.6 1.5 1 2.5 1.4l4.1 1.1c2.1.5 3.8 1 5.1 1.5 1.3.5 2.4 1.2 3.3 2.3a6 6 0 0 1 1.4 4.1 7 7 0 0 1-2.9 5.8 13 13 0 0 1-8 2.2Zm29.4-28.5c3.6 0 6.5.8 8.6 2.6 2.1 1.7 3.2 4 3.2 7.1 0 3-1.1 5.5-3.2 7.2-2.1 1.7-5 2.5-8.6 2.5H163V48h-3.6V19.7h11Zm-.2 16.4c2.7 0 4.7-.5 6.2-1.7a6 6 0 0 0 2.2-5 6 6 0 0 0-2.2-5 9.7 9.7 0 0 0-6.2-1.8H163v13.6h7.2Zm32.3 12.1c-2.8 0-5.4-.6-7.7-1.8a14.3 14.3 0 0 1-7.4-12.6 14.2 14.2 0 0 1 7.4-12.6 16 16 0 0 1 7.7-1.9c2.9 0 5.5.6 7.8 1.9 2.3 1.2 4 3 5.4 5.2a14 14 0 0 1 2 7.4 14 14 0 0 1-7.4 12.6 16.1 16.1 0 0 1-7.8 1.8Zm0-3.1a12 12 0 0 0 6-1.5A11 11 0 0 0 214 34c0-2.2-.5-4.1-1.5-5.8a11.8 11.8 0 0 0-10-5.6c-2.2 0-4.2.6-6 1.6-1.7 1-3.1 2.3-4.1 4-1 1.7-1.5 3.6-1.5 5.8a11 11 0 0 0 5.6 9.9 12 12 0 0 0 6 1.4Zm42.2 2.8-6.4-8.9-2 .1H229V48h-3.6V19.7h11c3.7 0 6.6 1 8.7 2.7 2 1.7 3.1 4 3.1 7.1a9 9 0 0 1-1.7 5.5 9.3 9.3 0 0 1-4.7 3.4l6.9 9.6h-4ZM236 36.2c2.7 0 4.8-.5 6.2-1.7a6 6 0 0 0 2.2-5 6 6 0 0 0-2.1-5 9.7 9.7 0 0 0-6.3-1.8H229v13.6h7.2ZM261 22.8H251v-3h23.5v3h-10V48H261V22.7Z"
    fill="#fff" />
  <path d="M15.5 19.9H3.2v-6.2h30.2v6.2H20.5V48h-5V19.9Z" fill="#F19C13" />
  <path d="M1 16h34v-5H1v5Z" fill="#3F5871" stroke="#3F5871" />
  <path
    d="M84.6 60.9h1.8v12.6h7.9V75h-9.7V60.9ZM103 75.2c-1.4 0-2.7-.4-3.8-1-1.2-.6-2.1-1.5-2.8-2.6-.6-1-1-2.3-1-3.7a7 7 0 0 1 3.8-6.3 8 8 0 0 1 3.8-.9c1.5 0 2.8.3 4 1a7 7 0 0 1 3.7 6.3 7 7 0 0 1-3.8 6.2 8 8 0 0 1-3.9 1Zm0-1.6a5.5 5.5 0 0 0 5.8-5.6 5.3 5.3 0 0 0-2.8-5c-.9-.5-1.9-.7-3-.7-1 0-2 .2-3 .7-.8.5-1.5 1.2-2 2-.5.9-.7 1.9-.7 3 0 1 .2 2 .7 2.8.5.9 1.2 1.6 2 2a6 6 0 0 0 3 .8Zm21.2-5.7h1.8v5.4c-.7.6-1.5 1-2.4 1.4a9.3 9.3 0 0 1-6.8-.5 7.1 7.1 0 0 1 0-12.6 8 8 0 0 1 3.8-.9c2.4 0 4.2.7 5.5 2.1l-1.2 1.2a5.8 5.8 0 0 0-4.3-1.7 6 6 0 0 0-5 2.8 5.7 5.7 0 0 0 0 5.8 5.7 5.7 0 0 0 5.1 2.7c1.4 0 2.6-.4 3.5-1v-4.7Zm6.5-7h1.8V75h-1.8V60.9Zm11 14.3c-1 0-2.1-.2-3.1-.5-1-.4-1.8-.8-2.3-1.3l.7-1.4c.5.5 1.2.9 2 1.2 1 .3 1.8.4 2.8.4 1.2 0 2-.2 2.7-.6.6-.5.9-1 .9-1.7 0-.5-.2-1-.5-1.3-.4-.3-.8-.6-1.3-.7l-2-.6-2.6-.7c-.6-.3-1.2-.7-1.6-1.2-.5-.5-.7-1.2-.7-2.1 0-1.2.5-2.1 1.4-2.9 1-.7 2.3-1.1 4-1.1.8 0 1.7.1 2.5.3.8.2 1.5.5 2 1l-.6 1.4c-1.1-.8-2.4-1.1-4-1.1-1.2 0-2 .2-2.6.6a2 2 0 0 0-1 1.7c0 .6.2 1 .6 1.3.3.3.7.6 1.2.8l2 .5c1.1.3 2 .5 2.6.8.7.2 1.2.6 1.7 1 .4.6.7 1.3.7 2.2 0 1.1-.5 2.1-1.5 2.8-1 .8-2.3 1.2-4 1.2ZM153 62.4h-5v-1.5h11.8v1.5h-5V75H153V62.4Zm9.5-1.5h1.8V75h-1.8V60.9Zm13.2 14.3a8 8 0 0 1-3.9-1 7.1 7.1 0 0 1-3.7-6.3 7 7 0 0 1 3.7-6.2c1.2-.7 2.4-1 3.9-1 2.3 0 4 .7 5.3 2.1L180 64a5.6 5.6 0 0 0-4.2-1.7 6 6 0 0 0-3 .7A5.6 5.6 0 0 0 170 68c0 1 .3 2 .8 3 .5.8 1.2 1.4 2 2a6 6 0 0 0 3 .7c1.7 0 3.1-.6 4.2-1.7L181 73a7 7 0 0 1-5.3 2.2Zm12.7 0c-1.1 0-2.1-.2-3.1-.5-1-.4-1.8-.8-2.4-1.3l.8-1.4c.5.5 1.2.9 2 1.2 1 .3 1.8.4 2.7.4 1.3 0 2.2-.2 2.8-.6.6-.5.9-1 .9-1.7 0-.5-.2-1-.5-1.3-.4-.3-.8-.6-1.3-.7l-2-.6-2.6-.7c-.6-.3-1.2-.7-1.7-1.2-.4-.5-.6-1.2-.6-2.1 0-1.2.4-2.1 1.4-2.9 1-.7 2.3-1.1 4-1.1l2.4.3c.8.2 1.5.5 2.1 1l-.6 1.4c-1.1-.8-2.4-1.1-4-1.1-1.2 0-2 .2-2.7.6a2 2 0 0 0-.9 1.7c0 .6.2 1 .5 1.3l1.3.8 2 .5c1.1.3 2 .5 2.6.8.7.2 1.2.6 1.7 1 .4.6.7 1.3.7 2.2 0 1.1-.5 2.1-1.5 2.8-1 .8-2.3 1.2-4 1.2Z"
    fill="#fff" />
</svg>