<svg width="800" height="800" viewBox="0 -1 26 26" fill="none" xmlns="http://www.w3.org/2000/svg">
  <path clip-rule="evenodd"
    d="M12.31 16.83a2.1 2.1 0 0 1-2.1 2.08 2.1 2.1 0 0 1-2.05-2.14 2.1 2.1 0 0 1 2.07-2.12c.56 0 1.1.24 1.48.65.39.4.6.96.6 1.53v0ZM22.2 16.83a2.1 2.1 0 0 1-2.1 2.08 2.1 2.1 0 0 1-2.05-2.14 2.1 2.1 0 0 1 2.07-2.12c.56 0 1.1.24 1.48.65.4.4.6.96.6 1.53v0Z"
    stroke="#fff" stroke-width="1.5" stroke-linecap="round" stroke-linejoin="round" />
  <path
    d="M17.8 17.58a.75.75 0 0 0 0-1.5v1.5Zm-5.49-1.5a.75.75 0 0 0 0 1.5v-1.5Zm4.75.75a.75.75 0 1 0 1.5 0h-1.5Zm1.5-5.27a.75.75 0 0 0-1.5 0h1.5Zm-.75 4.52a.75.75 0 1 0 0 1.5v-1.5Zm.24 1.5a.75.75 0 0 0 0-1.5v1.5Zm4.14-1.5a.75.75 0 1 0 .03 1.5l-.03-1.5Zm2.21-1.6h.75l-.01-.12-.74.13Zm.23-3.05a.75.75 0 0 0-1.48.26l1.48-.26Zm-6.83-5.3a.75.75 0 0 0 0 1.5v-1.5Zm3.48.75v.75h.01v-.75Zm1.6.68-.55.52.54-.52Zm.6 1.66-.75-.03.01.16.74-.13Zm-.33 2.47a.75.75 0 1 0 1.48-.26l-1.48.26Zm-4.6-4.81a.75.75 0 1 0-1.5 0h1.5Zm-1.5 4.68a.75.75 0 0 0 1.5 0h-1.5Zm0-4.68a.75.75 0 0 0 1.5 0h-1.5Zm.75-.8h-.75.75ZM16.77 5v-.75V5ZM7.42 5v-.75V5Zm-.74.32-.54-.52.54.52Zm-.3.75h.75-.75Zm0 9.68h.75-.75Zm.3.76-.54.52.54-.52Zm.74.31v.75-.75Zm.73.75a.75.75 0 0 0 0-1.5v1.5Zm9.66-6.76a.75.75 0 0 0 0 1.5v-1.5Zm6.08 1.5a.75.75 0 0 0 0-1.5v1.5ZM1 6.25a.75.75 0 0 0 0 1.5v-1.5Zm3.05 1.5a.75.75 0 0 0 0-1.5v1.5Zm-2.07 1.5a.75.75 0 0 0 0 1.5v-1.5Zm1.94 1.5a.75.75 0 0 0 0-1.5v1.5Zm-1.35 1.5a.75.75 0 0 0 0 1.5v-1.5Zm1.35 1.5a.75.75 0 0 0 0-1.5v1.5Zm13.88 2.33h-5.49v1.5h5.5v-1.5Zm.76.75v-5.27h-1.5v5.27h1.5Zm-.75.75h.24v-1.5h-.24v1.5Zm4.41 0a3.02 3.02 0 0 0 2.93-3.1l-1.5.02c.02.87-.66 1.56-1.46 1.58l.03 1.5Zm2.92-3.22-.51-2.93-1.48.26.51 2.92 1.48-.25ZM17.8 7.63h3.48v-1.5H17.8v1.5Zm3.49 0c.39 0 .76.15 1.04.45l1.09-1.03a2.91 2.91 0 0 0-2.14-.92l.01 1.5Zm1.04.45c.27.3.42.7.4 1.1l1.5.07c.04-.81-.25-1.6-.81-2.2l-1.1 1.03Zm.41 1.27.41 2.34 1.48-.26-.4-2.34-1.49.26Zm-5.69-2.47v4.68h1.5V6.88h-1.5Zm1.5 0v-.8h-1.5v.8h1.5Zm0-.8c0-.48-.18-.94-.5-1.28l-1.09 1.04c.06.06.1.14.1.23l1.5.01Zm-.5-1.28a1.78 1.78 0 0 0-1.28-.55v1.5c.06 0 .14.03.2.09l1.07-1.04Zm-1.28-.55H7.42v1.5h9.35v-1.5Zm-9.35 0c-.49 0-.94.2-1.28.55l1.08 1.04a.28.28 0 0 1 .2-.09v-1.5Zm-1.28.55c-.33.34-.51.8-.5 1.28h1.5c0-.1.03-.18.08-.24L6.14 4.8Zm-.5 1.28v9.67h1.5V6.07h-1.5Zm0 9.67c-.01.47.17.93.5 1.28l1.08-1.04a.33.33 0 0 1-.09-.24h-1.5Zm.5 1.28c.34.34.8.54 1.28.54v-1.5a.28.28 0 0 1-.2-.08l-1.08 1.04Zm1.28.54h.73v-1.5h-.73v1.5Zm10.39-5.26h6.08v-1.5h-6.08v1.5ZM1 7.75h3.05v-1.5H1v1.5Zm.98 3h1.94v-1.5H1.98v1.5Zm.59 3h1.35v-1.5H2.57v1.5Z"
    fill="#fff" />
</svg>