<svg width="745" height="413" viewBox="0 0 745 413" fill="none" xmlns="http://www.w3.org/2000/svg">
  <path d="M.5 516.9H384l383.4-289V8.5L.5 517Z" fill="#DBD6D6" />
  <path
    d="m684 155.5 36.7-25.5-11.8-5.5-36.7 25.5 11.8 5.5ZM537 267.5l36.8-25.4-11.8-5.5-36.8 25.4 11.8 5.5ZM610.6 216.7l36.7-25.5-11.8-5.5-36.8 25.5 11.9 5.5ZM463.5 318.4l36.7-25.4-11.8-5.5-36.8 25.4 11.9 5.5ZM426.7 343.9l-11.8-5.5-36.8 25.4 11.8 5.5 36.8-25.4ZM317.5 425.6l36.8-25.4-11.8-5.5-36.8 25.4 11.8 5.5ZM763.8 97l-18 12.4 11.9 5.5 7.2-5-1.1-13Z"
    fill="#51585E" />
  <path d="m540.6 258.7-63-37.7v-27.2l63 37.7v27.2Z" fill="#212426" />
  <path d="m540.5 231.5-63-37.7L637.1 99l63 37.7-159.6 94.8Z" fill="#212426" />
  <path d="m700 136.7.2 27.1-159.6 94.9v-27.2L700 136.7Z" fill="#99B2C2" />
  <path
    d="m684.3 162-3.2-1.9c-2.4-1.4-5.7-1.2-9.4 1a30.1 30.1 0 0 0-13.2 23.5c0 4.3 1.5 7.3 3.9 8.7l12.8 7.7c-2.4-1.4-3.8-4.4-3.9-8.7 0-8.7 6-19.2 13.3-23.6 3.6-2.1 7-2.4 9.4-1l-9.7-5.7Z"
    fill="#2F3438" />
  <path
    d="M684.5 168.7c7.4-4.3 13.3-.8 13.3 7.8 0 8.7-5.8 19.2-13.2 23.6-7.3 4.3-13.2.8-13.3-7.8 0-8.7 6-19.2 13.3-23.6Z"
    fill="#495157" />
  <path
    d="M684.6 192.8c-3.9 2.3-7 .4-7-4.2-.1-4.6 3-10.2 7-12.6 3.9-2.3 7-.4 7 4.2 0 4.6-3 10.3-7 12.6Zm0-18a18.5 18.5 0 0 0-8.1 14.4c0 5.3 3.6 7.5 8.1 4.8s8.1-9.1 8.1-14.4c0-5.3-3.7-7.4-8.1-4.8Z"
    fill="#BCC4C9" />
  <path
    d="M684.6 189.8c-.7.4-1.2.1-1.2-.7 0-.8.5-1.8 1.2-2.2.7-.4 1.2 0 1.2.8s-.5 1.7-1.2 2.1Zm-3.4-2c-.6.4-1.2.1-1.2-.7 0-.8.6-1.7 1.2-2.1.7-.4 1.3-.1 1.3.7 0 .8-.6 1.7-1.3 2.1Zm6.8-4c-.7.5-1.3.1-1.3-.7 0-.8.6-1.7 1.2-2.1.7-.4 1.3-.1 1.3.7 0 .8-.6 1.8-1.2 2.2Zm-3.4-2c-.7.5-1.2.2-1.2-.6s.5-1.8 1.2-2.2c.6-.4 1.2 0 1.2.7 0 .8-.5 1.8-1.2 2.2Zm0-5.8c-4 2.4-7.1 8-7 12.6 0 4.6 3.1 6.5 7 4.2 4-2.3 7-8 7-12.6s-3.1-6.5-7-4.2Z"
    fill="#E8F2F9" />
  <path
    d="M684.6 179c-.7.4-1.2 1.4-1.2 2.2 0 .8.5 1 1.2.7.7-.4 1.2-1.4 1.2-2.2 0-.8-.5-1.1-1.2-.7ZM681.2 185c-.6.4-1.2 1.3-1.2 2.1s.6 1.1 1.2.7c.7-.4 1.3-1.3 1.3-2.1s-.6-1.1-1.3-.7ZM684.6 187c-.7.3-1.2 1.3-1.2 2.1s.5 1.1 1.2.7c.7-.4 1.2-1.4 1.2-2.1 0-.8-.5-1.2-1.2-.8ZM688 181c-.7.4-1.3 1.3-1.3 2.1s.6 1.2 1.3.8c.6-.4 1.2-1.4 1.2-2.2 0-.8-.6-1.1-1.3-.7Z"
    fill="#32373B" />
  <path
    d="M652.3 177.2c-2.4-1.4-5.7-1.2-9.4 1a30.1 30.1 0 0 0-13.2 23.5c0 4.3 1.5 7.3 3.9 8.8l12.8 7.7c-2.4-1.5-3.8-4.5-3.9-8.8 0-8.7 6-19.2 13.2-23.5 3.7-2.2 7-2.4 9.5-1l-12.9-7.7Z"
    fill="#2F3438" />
  <path
    d="M655.7 185.9c7.4-4.4 13.3-.9 13.3 7.8 0 8.6-5.9 19.2-13.2 23.5-7.3 4.4-13.2.9-13.3-7.8 0-8.7 6-19.2 13.2-23.5Z"
    fill="#495157" />
  <path
    d="M655.8 210c-3.9 2.2-7 .4-7-4.3-.1-4.6 3-10.2 7-12.5 3.9-2.4 7-.5 7 4.1s-3 10.3-7 12.6Zm0-18a18.5 18.5 0 0 0-8.1 14.4c0 5.2 3.6 7.4 8.1 4.7 4.5-2.6 8.1-9 8.1-14.4 0-5.3-3.7-7.4-8.1-4.8Z"
    fill="#BCC4C9" />
  <path
    d="M655.8 207c-.7.3-1.2 0-1.2-.8s.5-1.7 1.2-2.1c.7-.4 1.2-.1 1.2.7 0 .8-.5 1.7-1.2 2.1Zm-3.4-2c-.6.4-1.2 0-1.2-.7 0-.8.6-1.8 1.2-2.2.7-.4 1.3-.1 1.3.7 0 .8-.6 1.8-1.3 2.2Zm6.8-4c-.7.4-1.3 0-1.3-.7 0-.8.6-1.8 1.2-2.2.7-.4 1.3 0 1.3.7 0 .8-.6 1.8-1.3 2.2Zm-3.4-2c-.7.4-1.2 0-1.2-.7 0-.8.5-1.8 1.2-2.2.6-.4 1.2 0 1.2.7 0 .8-.5 1.8-1.2 2.2Zm0-5.8c-4 2.3-7.1 8-7 12.5 0 4.7 3.1 6.5 7 4.2 4-2.3 7-8 7-12.6s-3.1-6.5-7-4.1Z"
    fill="#E8F2F9" />
  <path
    d="M655.8 196.1c-.7.4-1.2 1.4-1.2 2.2 0 .8.5 1.1 1.2.7.7-.4 1.2-1.4 1.2-2.2 0-.8-.5-1-1.2-.7ZM652.4 202c-.6.5-1.2 1.5-1.2 2.3 0 .7.6 1 1.2.7.7-.4 1.3-1.4 1.3-2.2 0-.8-.6-1.1-1.3-.7ZM655.8 204c-.7.5-1.2 1.4-1.2 2.2 0 .8.5 1.1 1.2.7.7-.4 1.2-1.3 1.2-2.1s-.5-1.1-1.2-.7ZM659.1 198c-.6.5-1.2 1.5-1.2 2.3 0 .8.6 1 1.3.7.6-.4 1.2-1.4 1.2-2.2 0-.8-.6-1.1-1.3-.7Z"
    fill="#32373B" />
  <path
    d="M573 224.3c-2.3-1.4-5.7-1.2-9.3 1a30.1 30.1 0 0 0-13.2 23.5c0 4.3 1.4 7.4 3.8 8.8l12.9 7.7c-2.4-1.5-3.9-4.5-4-8.8 0-8.6 6-19.2 13.3-23.5 3.7-2.2 7-2.4 9.4-1l-12.8-7.7Z"
    fill="#2F3438" />
  <path
    d="M576.5 233c7.3-4.4 13.3-.9 13.3 7.8 0 8.6-5.9 19.2-13.2 23.5-7.3 4.4-13.3.9-13.3-7.8 0-8.6 5.9-19.2 13.2-23.5Z"
    fill="#495157" />
  <path
    d="M576.6 257c-4 2.3-7.1.5-7.1-4.2 0-4.6 3.1-10.2 7-12.5 4-2.4 7.1-.5 7.1 4.1 0 4.7-3.1 10.3-7 12.6Zm0-18a18.4 18.4 0 0 0-8.2 14.5c0 5.3 3.7 7.4 8.2 4.7 4.4-2.6 8-9 8-14.4 0-5.3-3.6-7.4-8-4.8Z"
    fill="#BCC4C9" />
  <path
    d="M576.6 254c-.7.5-1.3.1-1.3-.7 0-.8.6-1.7 1.2-2.1.7-.4 1.3-.1 1.3.7 0 .8-.6 1.8-1.2 2.2Zm-3.4-2c-.7.5-1.2.2-1.2-.6s.5-1.8 1.2-2.2c.6-.4 1.2 0 1.2.7 0 .8-.5 1.8-1.2 2.2Zm6.7-4c-.7.5-1.2.2-1.2-.6s.5-1.8 1.2-2.2c.7-.4 1.2 0 1.2.7 0 .8-.5 1.8-1.2 2.2Zm-3.4-1.9c-.6.4-1.2 0-1.2-.7 0-.8.6-1.8 1.2-2.2.7-.4 1.2 0 1.2.7 0 .8-.5 1.8-1.2 2.2Zm0-5.8c-3.9 2.3-7 8-7 12.5 0 4.7 3.2 6.5 7 4.2 4-2.3 7.1-8 7.1-12.6s-3.2-6.5-7-4.1Z"
    fill="#E8F2F9" />
  <path
    d="M576.5 243.2c-.6.4-1.2 1.4-1.2 2.2 0 .8.6 1.1 1.2.7.7-.4 1.3-1.4 1.3-2.2 0-.8-.6-1-1.3-.7ZM573.2 249.2c-.7.4-1.2 1.4-1.2 2.2 0 .8.5 1 1.2.7.7-.4 1.2-1.4 1.2-2.2 0-.8-.5-1.1-1.2-.7ZM576.5 251.2c-.6.4-1.2 1.3-1.2 2.1s.6 1.2 1.3.8c.6-.4 1.2-1.4 1.2-2.2 0-.8-.6-1.1-1.3-.7ZM579.9 245.2c-.7.4-1.2 1.4-1.2 2.2 0 .8.5 1 1.2.7.7-.4 1.2-1.4 1.2-2.2 0-.8-.5-1.1-1.2-.7Z"
    fill="#32373B" />
  <path d="M694.5 161.4 673.7 149l10.5 4 20.8 12.5-10.5-4Z" fill="#C5CED4" />
  <path d="m645.6 190.5-20.8-12.4 48.9-29.1 20.8 12.4-49 29.1Z" fill="#E4EEF5" />
  <path d="m635.1 207-20.8-12.4 10.5-16.5 20.8 12.4L635 207Z" fill="#C5CED4" />
  <path d="m637 208.7-20.7-12.5-2-1.6 20.8 12.4 2 1.7Z" fill="#C5CED4" />
  <path d="m694.5 161.4 10.5 4-2 4-9.6-3.7-46.7 27.8-9.6 15.2-2-1.7 10.5-16.5 48.9-29Z" fill="#fff" />
  <path d="m600.1 212.5-80.6-48.2V79l80.6 48.2v85.4Z" fill="#304559" />
  <path d="M600.1 127.1 519.5 79l107.3-63.8 80.6 48.3L600.1 127Z" fill="#39526A" />
  <path d="M707.4 63.4v85.3l-107.3 63.8v-85.4l107.3-63.7Z" fill="#344A5F" />
  <path
    d="m701.6 74-4.1 2.5A3 3 0 0 0 696 79v.7c0 .9.6 1.2 1.4.8l4.1-2.5a3 3 0 0 0 1.4-2.4v-.7c0-.8-.6-1.2-1.4-.7ZM701.6 142.6l-4.1 2.4a3 3 0 0 0-1.4 2.4v.7c0 .9.6 1.2 1.4.8l4.1-2.5a3 3 0 0 0 1.4-2.4v-.6c0-1-.6-1.3-1.4-.8Z"
    fill="#F7D134" />
  <path
    d="M524.2 109.5c-.5-.3-1.3-.3-2.1.2l-31.6 18.8c-9 5.4-22.9 20.2-24.8 32.7-2 12.5-5.3 39.2-5.3 47.8l.1 25.5 71 42.4-.1-25.4c0-8.6 3.2-35.3 5.2-47.8 2-12.6 15.8-27.4 24.8-32.8l31.6-18.7c.8-.5 1.6-.6 2.2-.3l-71-42.4Z"
    fill="#E4EEF5" />
  <path
    d="M482.6 137c-7 6.7-14 16.3-15.2 24.5-1.5 9.2-3.5 24.8-4.5 36.1l-.3 4.9c10.2 14 22 25 33.8 32a50 50 0 0 0 33.8 8.2v-1.2c1-12 3.3-29.3 4.7-38.1 1.4-9 8.4-18.8 15.6-25.9l-67.9-40.6Z"
    fill="#32373B" />
  <path
    d="M593 152.2c1.7-1 3-.2 3 1.8l.2 56.4a7 7 0 0 1-3 5.4L569.3 230a37.7 37.7 0 0 0-16.5 29.4v1.8c0 1.7-1.1 3.7-2.5 4.5l-18.9 11.2v-25.4a493 493 0 0 1 5.2-47.8c2-12.6 15.8-27.4 24.8-32.8l31.6-18.7Z"
    fill="#fff" />
  <path
    d="M576.9 190.7v-17.8c-.1-3.3-2.3-4.6-5-3l-.3.2-7.4 4.4-2.4 1.4c-3.5 2.1-8 6-11.9 10.5-2.1 2.4-4.1 5-5.7 7.6l-.2.4a25.7 25.7 0 0 0-4 11.6l.1-.6a629.2 629.2 0 0 0-2.6 19.9l-1.2 10.7c-.2 2.8.1 4.6 2.7 3l10.7-6.3c1.6-1 2.5-2.2 3-4.2a27.3 27.3 0 0 1 1.6-4.9c1.2-2.8 3-5.9 5.9-8.4.8-.8 1.8-1.5 2.8-2.1l.2-.2 8.7-5.1c2.8-1.7 5-5.6 5-8.9v-8.2Z"
    fill="#42ACE3" />
  <path
    d="M549.9 186.4c-2.1 2.4-4.1 5-5.7 7.6l-.2.4 16.1 20.8c1-.8 1.9-1.5 3-2.1l.1-.2c2-1 3.6-2 5-3L550 186.4ZM571.6 170l-7.4 4.5 12.7 16.2v-14l-5.3-6.6ZM540.1 205.4a655.9 655.9 0 0 0-2.6 19.9l7.8 10 4.4-2.6c1.6-1 2.5-2.2 3-4.2a26.8 26.8 0 0 1 1.6-4.9l-14.2-18.2Z"
    fill="#65BEEB" />
  <path
    d="m591.2 181.5-9 5.3c-.6.3-1.1 1.3-1.1 2 0 .8.5 1.1 1.1.7l9-5.3c.6-.4 1.1-1.3 1.1-2 0-.8-.5-1.1-1.1-.7ZM591.1 175.8l-8.9 5.3c-.6.4-1.1 1.3-1.1 2.1s.5 1 1.1.7l9-5.3c.6-.4 1.1-1.3 1.1-2 0-.8-.5-1.2-1.2-.8ZM591.1 170.2l-8.9 5.3c-.6.4-1.2 1.3-1.2 2 0 .9.6 1.2 1.2.8l9-5.3c.6-.4 1.1-1.3 1.1-2.1s-.5-1-1.2-.7ZM591.1 164.6l-8.9 5.3c-.7.4-1.2 1.3-1.2 2 0 .8.6 1.1 1.2.8l9-5.3c.6-.4 1-1.4 1-2.1 0-.8-.4-1-1-.7ZM576 209.5l-6.3 3.8c-.5.3-.9 1-.8 1.4v1.3l8-4.8V210c0-.6-.4-.8-.8-.5Z"
    fill="#99B2C2" />
  <path d="m578.8 160.6.1 63.7.2-.2-.1-62.6v-1l-.2.1Z" fill="#E4EEF5" />
  <path
    d="m541.8 247.3-4.2 2.5a3 3 0 0 0-1.3 2.4v.7c0 .9.6 1.2 1.3.8l4.2-2.5a3 3 0 0 0 1.3-2.4v-.7c0-.8-.6-1.2-1.3-.8Z"
    fill="#F7D134" />
  <path
    d="M469 161.8c-1.4 9.5-3.6 26.5-4.6 38.3l64.3 38.5c1.1-11.6 3.1-27 4.5-35.5.2-1.7.7-3.3 1.2-4.9l-64.8-38.7-.5 2.3Z"
    fill="#42ACE3" />
  <path
    d="m469.6 159.5-.5 2.3a650 650 0 0 0-4.7 38.3l1.4.8 8.4-11.7v-15c0-2.2.6-6.2 1.9-10.9l-6.5-3.8Z"
    fill="#4695BF" />
  <path d="M482.9 139.1a52.3 52.3 0 0 0-13.3 20.4l64.8 38.7a60 60 0 0 1 13.2-20.3L483 139Z"
    fill="#51585E" />
  <path d="M530.5 222.8 474.2 189c-8.2 3.3-9.8 11-9.8 11l64.3 38.4 1.8-15.7Z" fill="#245D7A" />
  <path opacity=".4"
    d="m483.7 137.5 18 10.8 23.9 94.9c-5 .2-10.4-.6-15.9-2.4l-26-103.3Zm-3 85.3c5 4.6 10.2 8.5 15.4 11.6l-22-87.5a36.8 36.8 0 0 0-7.6 20.1l14.1 55.8Z"
    fill="#fff" />
  <path
    d="m562.8 140.4-28.7-17a11 11 0 0 0-10.3 0l-14 8.3c-2.9 1.7-2.9 4.5 0 6.2l28.7 17a11 11 0 0 0 10.4 0l14-8.3c2.8-1.7 2.8-4.5 0-6.2Z"
    fill="#51585E" />
  <path
    d="M526.2 254h-.5c-4.9 1.2-5.3 6.6-5.4 7.4-.1.8 0 1.8.6 2.1l4.8 2.9c1.3.7 1.7.4 1.7-.5v-10c0-.6-.6-1.5-1.2-1.8ZM464.5 217.5l-.5-.4c-.6-.4-1.2-.2-1.2.3v10c0 1 .4 1.8 1.6 2.6l4.9 2.8c.5.3.7-.5.5-1.4 0-.9-.5-6.8-5.3-13.9Z"
    fill="#F7D134" />
  <path
    d="M514.2 256.1 476 233.4c-.4-.3-.7 0-.7.4s.3 1 .7 1.2l38.3 22.7c.4.3.7 0 .7-.3 0-.5-.3-1-.7-1.3ZM515.2 253.8l-40.3-24c-.3-.1-.6 0-.6.5 0 .4.3 1 .6 1.2l40.3 24c.4.2.7 0 .7-.5 0-.4-.3-1-.7-1.2ZM516.2 251.5l-42.2-25c-.4-.3-.7-.1-.7.3 0 .5.3 1 .7 1.2l42.2 25.1c.4.2.7 0 .7-.4s-.3-1-.7-1.2Z"
    fill="#32373B" />
  <path
    d="M722.8 118.6c0-.7-.4-1-1-.7L695 134c-.6.3-1 1.1-1 1.8s.5 1 1 .6l26.8-15.9c.6-.3 1-1.1 1-1.8Z"
    fill="#fff" />
  <path
    d="M718 87.1c-.1-.7-.6-1-1.2-.6L672.1 113c-.6.4-1 1.2-1 2 0 .6.4.9 1 .5L716.9 89c.5-.3 1-1.2 1-1.9Z"
    fill="#F7D134" />
  <path
    d="M615.6 182.2c0-.7-.5-1-1-.6l-26.9 15.9c-.5.3-1 1.2-1 1.9s.5 1 1 .6l26.8-16c.6-.3 1-1.1 1-1.8Z"
    fill="#fff" />
  <path
    d="M655.5 45.4c-.6.3-1.5.3-2.1 0-.6-.4-.6-1 0-1.3l26.8-15.9c.5-.3 1.5-.3 2 0 .6.4.6 1 0 1.3l-26.7 15.9ZM667.4 8.4l-57.2 34c-.5.4-1.5.4-2 0-.6-.3-.6-.9 0-1.2l57.1-34c.6-.4 1.5-.4 2.1 0 .6.3.6.9 0 1.2Z"
    fill="#F7D134" />
  <path
    d="m701 48-57.2 34c-.6.3-1.5.3-2 0-.7-.4-.7-1 0-1.3l57-34c.7-.4 1.6-.4 2.2 0 .6.3.6.9 0 1.2Z"
    fill="#fff" />
  <path
    d="m728.8 70.4-58.5 34.8c-.6.3-1 1.2-1 1.9 0 .6.4 1 1 .6l58.5-34.8c.6-.3 1-1.2 1-1.9 0-.6-.4-1-1-.6Z"
    fill="#FFA726" />
  <path d="m695 117-58.4 34.8c-.6.4-1 1.2-1 1.9s.4 1 1 .6l58.5-34.8c.6-.3 1-1.1 1-1.8s-.4-1-1-.6Z"
    fill="#F7AA23" />
  <path
    d="M637 130.4 578.4 165c-.6.4-1 1.2-1 1.9s.4 1 1 .6l58.4-34.7c.6-.4 1.1-1.2 1.1-2 0-.6-.5-.9-1-.5Z"
    fill="#fff" />
  <path opacity=".4"
    d="M232.6 254.9a28.6 28.6 0 0 0-8 8c1-3.2 2.3-16.5-2.6-16-1.2 0-2.6.6-4.3 1.5-5 3-11.7 10.4-17.7 23.6.1-5.1-2.4-6.1-6-4-5.6 3.3-13.6 13.7-18.8 28 0-2.2-1.5-2.4-3.3-1.3a30.1 30.1 0 0 0-10 13.5l76.8-45.7c2.7-8-.7-10.8-6-7.6ZM335.3 99.6a28.6 28.6 0 0 0-8 8.1c.9-3.3 2.3-16.5-2.6-16.1-1.2 0-2.7.6-4.3 1.6-5 3-11.8 10.3-17.8 23.5.2-5-2.3-6-6-3.9-5.5 3.3-13.5 13.7-18.7 28-.1-2.3-1.5-2.5-3.4-1.4a30.1 30.1 0 0 0-10 13.5l76.8-45.7c2.8-8-.6-10.8-6-7.6ZM522.2 20.5c-1.8 1-3.9 2.9-6 5.7.7-2.3 1.8-11.7-1.8-11.4-1 0-2 .4-3.2 1.1a37.5 37.5 0 0 0-13.1 16.7c0-3.6-1.8-4.3-4.5-2.8a41 41 0 0 0-13.9 19.8c0-1.6-1-1.8-2.4-1a21.4 21.4 0 0 0-7.5 9.6l56.9-32.3c2-5.7-.5-7.7-4.5-5.4Z"
    fill="#77C9F2" />
</svg>